# xmcd CD database file
#
# Track frame offsets:
#	150
#	12907
#	25236
#	38228
#	51961
#	65346
#	79504
#	91375
#	105283
#	120138
#	133387
#	146220
#	158395
#	171157
#	185251
#	196644
#	208635
#	222255
#	236302
#	248285
#	260899
#	273435
#	285788
#	299418
#	313087
#	326126
#
# Disc length: 4514 seconds
#
# Revision: 0
# Processed by: cddbd v1.5.2PL0 Copyright (c) Steve Scherf et al.
# Submitted via: CDex 1.82
#
DISCID=6811a01a
DTITLE=Washboard Sam - The Washboard Sam Collection 1935-1953
DYEAR=2014
DGENRE=Blues
TTITLE0=Jumpin' Rooster (1938)
TTITLE1=Bucket's Got A Hole In It (1938)
TTITLE2=Walkin' In My Sleep (1938)
TTITLE3=Washboard Swing (1938)
TTITLE4=I Believe I'll Make A Change (1939)
TTITLE5=That Will Get It (1939)
TTITLE6=Booker T Blues (1939)
TTITLE7=Diggin' My Potatoes (1939)
TTITLE8=I Love My Baby (1939)
TTITLE9=Good Old Easy Street (1939)
TTITLE10=Wasn't He Bad (1939)
TTITLE11=Jersey Cow Blues (1939)
TTITLE12=Don't Fool With Me (1939)
TTITLE13=So Early In The Morning (1939)
TTITLE14=Why Would You Do That To Me (1940)
TTITLE15=Morning Dove Blues (1940)
TTITLE16=Dissatisfied Blues (1940)
TTITLE17=Good Luck Blues (1940)
TTITLE18=Ain't You Comin' Out Tonight (1940)
TTITLE19=My Feet Jumped Salty (1941)
TTITLE20=Flying Crow Blues (1941)
TTITLE21=Levee Camp Blues (1941)
TTITLE22=I'm Feeling Lowdown (1941)
TTITLE23=She Belongs To The Devil (1941)
TTITLE24=Evil Blues (1941)
TTITLE25=Get Down Brother (1941)
EXTD=YEAR: 2014
EXTT0=
EXTT1=
EXTT2=
EXTT3=
EXTT4=
EXTT5=
EXTT6=
EXTT7=
EXTT8=
EXTT9=
EXTT10=
EXTT11=
EXTT12=
EXTT13=
EXTT14=
EXTT15=
EXTT16=
EXTT17=
EXTT18=
EXTT19=
EXTT20=
EXTT21=
EXTT22=
EXTT23=
EXTT24=
EXTT25=
PLAYORDER=
